<?xml version="1.0" encoding="UTF-8" standalone="no"?>
<svg width="120" height="120" viewBox="0 0 120 120" fill="none" xmlns="http://www.w3.org/2000/svg">
  <!-- Fondo con gradiente -->
  <defs>
    <linearGradient id="paint0_linear" x1="0" y1="0" x2="120" y2="120" gradientUnits="userSpaceOnUse">
      <stop offset="0" stop-color="#121212"/>
      <stop offset="1" stop-color="#1e1e1e"/>
    </linearGradient>
    <filter id="glow" x="-50%" y="-50%" width="200%" height="200%">
      <feGaussianBlur stdDeviation="4" result="blur"/>
      <feComposite in="SourceGraphic" in2="blur" operator="over"/>
    </filter>
  </defs>
  
  <!-- Fondo con glassmorphism -->
  <rect width="120" height="120" rx="25" fill="url(#paint0_linear)" opacity="0.9"/>
  
  <!-- Estrella brillante (emoji de chispa) -->
  <g filter="url(#glow)">
    <path d="M60 20L65.9 40.1L85 46L65.9 51.9L60 72L54.1 51.9L35 46L54.1 40.1L60 20Z" fill="#f472b6" opacity="0.9"/>
    <path d="M38 65L41 75L50 78L41 81L38 91L35 81L26 78L35 75L38 65Z" fill="#67e8f9" opacity="0.9"/>
    <path d="M82 65L85 75L94 78L85 81L82 91L79 81L70 78L79 75L82 65Z" fill="#f472b6" opacity="0.9"/>
  </g>
  
  <!-- Texto "CHISPART AI" con efecto brillante -->
  <text x="60" y="105" font-family="Arial, sans-serif" font-size="12" font-weight="bold" fill="#f0f0f0" text-anchor="middle" filter="url(#glow)">CHISPART AI</text>
</svg>